<?xml version="1.0" encoding="UTF-8"?>
<svg version="1.1" xmlns="http://www.w3.org/2000/svg" width="305" height="300">
<path d="M0 0 C3.61456368 1.89727098 5.41188088 3.5505946 7.0078125 7.23828125 C11.85495975 5.37093764 16.59073719 3.52170971 21.1328125 0.98828125 C25.34014276 -1.15779648 28.30633139 -1.29253113 33.0078125 -0.76171875 C36.5078125 0.73828125 36.5078125 0.73828125 39.0078125 2.23828125 C39.0078125 2.89828125 39.0078125 3.55828125 39.0078125 4.23828125 C41.0958382 5.50601114 42.41123926 6.29793857 44.8828125 6.05078125 C47.2052825 5.20596003 47.2052825 5.20596003 50.0703125 3.67578125 C53.0078125 2.23828125 53.0078125 2.23828125 56.0078125 2.23828125 C56.0078125 1.57828125 56.0078125 0.91828125 56.0078125 0.23828125 C61.23518414 -1.43447767 65.58619768 -1.43511524 70.5703125 0.92578125 C73.97864292 3.09261575 77.04567319 5.49288384 80.0078125 8.23828125 C80.0078125 8.89828125 80.0078125 9.55828125 80.0078125 10.23828125 C80.9978125 10.56828125 81.9878125 10.89828125 83.0078125 11.23828125 C83.0078125 11.89828125 83.0078125 12.55828125 83.0078125 13.23828125 C83.9978125 13.56828125 84.9878125 13.89828125 86.0078125 14.23828125 C87.81726834 17.02296977 88.28406625 19.34570866 88.41748047 22.62841797 C88.47465744 23.9191069 88.47465744 23.9191069 88.5329895 25.23587036 C88.56335297 26.16221283 88.59371643 27.0885553 88.625 28.04296875 C88.66253387 29.01450897 88.70006775 29.98604919 88.73873901 30.98703003 C89.08720371 40.81152763 89.15982791 50.63499408 89.13818359 60.46484375 C89.13274967 63.39718639 89.13821365 66.32938024 89.14453125 69.26171875 C89.15994196 96.36116344 89.15994196 96.36116344 85.0078125 102.23828125 C82.1796875 104.1953125 82.1796875 104.1953125 78.7578125 106.05078125 C77.83778442 106.55508667 77.83778442 106.55508667 76.89916992 107.06958008 C75.60125264 107.7779985 74.29996959 108.48028085 72.99560547 109.17675781 C71.03540757 110.2235449 69.08544177 111.28749938 67.13671875 112.35546875 C46.24657403 123.73919962 46.24657403 123.73919962 39.0078125 123.23828125 C34.21600494 121.34152409 30.88275035 118.52659657 27.0078125 115.23828125 C25.93402344 115.81578125 24.86023438 116.39328125 23.75390625 116.98828125 C22.31809952 117.73902987 20.88187938 118.48898822 19.4453125 119.23828125 C18.74083984 119.61984375 18.03636719 120.00140625 17.31054688 120.39453125 C12.69387707 122.77732857 9.32301805 123.78292577 4.0078125 123.23828125 C-0.7948239 121.37603448 -4.11754551 118.52178508 -7.9921875 115.23828125 C-9.06597656 115.81578125 -10.13976562 116.39328125 -11.24609375 116.98828125 C-12.68190048 117.73902987 -14.11812062 118.48898822 -15.5546875 119.23828125 C-16.25916016 119.61984375 -16.96363281 120.00140625 -17.68945312 120.39453125 C-22.30999268 122.77932586 -25.67297263 123.76493619 -30.9921875 123.23828125 C-36.998021 121.19374219 -40.73191552 116.72693894 -44.9921875 112.23828125 C-45.94735179 111.2975527 -46.90513017 110.35945931 -47.8671875 109.42578125 C-53.13555397 104.00246282 -53.12066149 99.1614821 -53.09326172 91.88110352 C-53.09168564 91.15849335 -53.09010956 90.43588318 -53.08848572 89.69137573 C-53.08102247 87.31239929 -53.06501625 84.93360541 -53.046875 82.5546875 C-53.04116611 81.73931959 -53.03545723 80.92395168 -53.02957535 80.08387566 C-52.99810016 75.77157435 -52.95920049 71.45940578 -52.91503906 67.1472168 C-52.87122625 62.70087734 -52.85545873 58.25489136 -52.84580803 53.80836582 C-52.83292834 50.38084801 -52.79821688 46.95379469 -52.75769424 43.52650261 C-52.74223246 41.88756942 -52.73510823 40.24853494 -52.73659897 38.6095295 C-52.73677891 36.31373036 -52.70579252 34.02028966 -52.66748047 31.72485352 C-52.65780243 30.42089127 -52.64812439 29.11692902 -52.63815308 27.77345276 C-51.72695705 22.78675634 -49.35811426 19.91872284 -45.17797852 16.94970703 C-44.62295654 16.69688965 -44.06793457 16.44407227 -43.49609375 16.18359375 C-42.86179443 15.88283936 -42.22749512 15.58208496 -41.57397461 15.2722168 C-40.90760986 14.97226807 -40.24124512 14.67231934 -39.5546875 14.36328125 C-38.1285119 13.68846955 -36.70406215 13.0099998 -35.28125 12.328125 C-34.56614258 11.9863623 -33.85103516 11.64459961 -33.11425781 11.29248047 C-28.67509252 9.08719794 -24.43925367 6.5232796 -20.17578125 4 C-13.67481838 0.40253466 -7.39535127 -2.82763431 0 0 Z " fill="#133E96" transform="translate(133.9921875,57.76171875)"/>
<path d="M0 0 C3.54264678 1.85952206 5.58902005 3.49782844 7.0078125 7.23828125 C7.6678125 7.56828125 8.3278125 7.89828125 9.0078125 8.23828125 C5.83957207 11.02249253 2.8855396 12.82189077 -1.0234375 14.390625 C-5.98202339 16.5255717 -11.52825197 18.98139663 -14.9921875 23.23828125 C-16.25994165 26.91842936 -16.15373828 30.58817345 -16.20092773 34.45019531 C-16.21071152 35.16944687 -16.2204953 35.88869843 -16.23057556 36.62974548 C-16.26043071 39.00444717 -16.28188767 41.37909295 -16.30078125 43.75390625 C-16.30735308 44.56769493 -16.3139249 45.38148361 -16.32069588 46.21993256 C-16.35324666 50.52795169 -16.37770757 54.83594653 -16.3972168 59.14404297 C-16.41502094 62.7000746 -16.44983176 66.25531191 -16.49975586 69.81103516 C-16.56009837 74.11458996 -16.59071096 78.4174092 -16.60038948 82.72136688 C-16.60892106 84.35600097 -16.62768248 85.9906166 -16.6571331 87.62500763 C-17.06099132 99.10612867 -17.06099132 99.10612867 -11.51478577 108.7946167 C-11.01232834 109.271026 -10.50987091 109.7474353 -9.9921875 110.23828125 C-9.2084375 111.22828125 -8.4246875 112.21828125 -7.6171875 113.23828125 C-7.0809375 113.89828125 -6.5446875 114.55828125 -5.9921875 115.23828125 C-6.51167969 115.32980469 -7.03117187 115.42132813 -7.56640625 115.515625 C-11.49856998 116.68704254 -15.02249101 118.80764886 -18.59570312 120.79882812 C-22.91531253 123.07404224 -26.14490173 123.65393015 -30.9921875 123.23828125 C-36.998021 121.19374219 -40.73191552 116.72693894 -44.9921875 112.23828125 C-45.94735179 111.2975527 -46.90513017 110.35945931 -47.8671875 109.42578125 C-53.13555397 104.00246282 -53.12066149 99.1614821 -53.09326172 91.88110352 C-53.09168564 91.15849335 -53.09010956 90.43588318 -53.08848572 89.69137573 C-53.08102247 87.31239929 -53.06501625 84.93360541 -53.046875 82.5546875 C-53.04116611 81.73931959 -53.03545723 80.92395168 -53.02957535 80.08387566 C-52.99810016 75.77157435 -52.95920049 71.45940578 -52.91503906 67.1472168 C-52.87122625 62.70087734 -52.85545873 58.25489136 -52.84580803 53.80836582 C-52.83292834 50.38084801 -52.79821688 46.95379469 -52.75769424 43.52650261 C-52.74223246 41.88756942 -52.73510823 40.24853494 -52.73659897 38.6095295 C-52.73677891 36.31373036 -52.70579252 34.02028966 -52.66748047 31.72485352 C-52.65780243 30.42089127 -52.64812439 29.11692902 -52.63815308 27.77345276 C-51.72695705 22.78675634 -49.35811426 19.91872284 -45.17797852 16.94970703 C-44.62295654 16.69688965 -44.06793457 16.44407227 -43.49609375 16.18359375 C-42.86179443 15.88283936 -42.22749512 15.58208496 -41.57397461 15.2722168 C-40.90760986 14.97226807 -40.24124512 14.67231934 -39.5546875 14.36328125 C-38.1285119 13.68846955 -36.70406215 13.0099998 -35.28125 12.328125 C-34.56614258 11.9863623 -33.85103516 11.64459961 -33.11425781 11.29248047 C-28.67509252 9.08719794 -24.43925367 6.5232796 -20.17578125 4 C-13.67481838 0.40253466 -7.39535127 -2.82763431 0 0 Z " fill="#A5C0F6" transform="translate(133.9921875,57.76171875)"/>
<path d="M0 0 C1.7890625 1.6796875 1.7890625 1.6796875 3.625 3.875 C4.54152344 4.95394531 4.54152344 4.95394531 5.4765625 6.0546875 C8.3493555 9.72302318 8.13660934 12.27919001 8.16113281 16.90893555 C8.16858017 17.97515388 8.16858017 17.97515388 8.17617798 19.06291199 C8.19081355 21.42085736 8.19760546 23.77873536 8.203125 26.13671875 C8.20887727 27.77618919 8.214635 29.41565961 8.22039795 31.05513 C8.23091325 34.49761265 8.2367518 37.94007191 8.24023438 41.38256836 C8.24570668 45.78301481 8.2697052 50.18314989 8.29820633 54.58349895 C8.31688228 57.97309757 8.32204104 61.36262213 8.32357025 64.75226784 C8.32658839 66.37370307 8.33458849 67.99513726 8.34775543 69.61652184 C8.36491284 71.89261471 8.362912 74.16795954 8.35644531 76.4440918 C8.36191376 78.38362984 8.36191376 78.38362984 8.36749268 80.36235046 C7.85055351 85.47930552 6.53198344 89.46801656 2.8125 93.1875 C-1.86988563 96.20503741 -6.52929164 98.79376364 -12 100 C-12 100.66 -12 101.32 -12 102 C-14.1134673 103.28317658 -15.50088598 104.01559731 -18 103.9375 C-20.90724143 102.57473058 -22.165271 100.60413148 -24 98 C-24.52728195 97.26812973 -25.0545639 96.53625946 -25.5978241 95.7822113 C-27.3800036 92.2459931 -27.37425061 89.68861249 -27.37231445 85.73461914 C-27.37596512 85.02176254 -27.37961578 84.30890594 -27.38337708 83.57444763 C-27.39145524 81.22777163 -27.37789443 78.88179221 -27.36328125 76.53515625 C-27.36276225 74.89757793 -27.36328148 73.25999897 -27.36479187 71.62242126 C-27.36470227 68.19357986 -27.35429803 64.76497413 -27.33618164 61.33618164 C-27.31351286 56.95033139 -27.31294843 52.56482584 -27.31969929 48.17893314 C-27.32304805 44.79793762 -27.31639182 41.41702006 -27.30657005 38.03603935 C-27.30273205 36.41938116 -27.30156401 34.80271428 -27.3031559 33.18605232 C-27.30352858 30.92212671 -27.29084948 28.65863546 -27.2746582 26.39477539 C-27.27005081 25.10857803 -27.26544342 23.82238068 -27.26069641 22.49720764 C-26.86588764 17.2009005 -25.91327659 13.99823255 -22.3125 10.0625 C-16.70841055 5.57684878 -7.22948665 0 0 0 Z " fill="#051841" transform="translate(179,67)"/>
<path d="M0 0 C1.94921875 1.57421875 1.94921875 1.57421875 3.6875 3.6875 C4.55955078 4.71423828 4.55955078 4.71423828 5.44921875 5.76171875 C8.6688868 10.40874593 9.24582018 14.25583543 9.19873047 19.86645508 C9.19569412 20.53708481 9.19265778 21.20771454 9.18952942 21.89866638 C9.17629577 24.10586289 9.14763317 26.31250944 9.1171875 28.51953125 C9.10115158 30.06263384 9.08546078 31.60574004 9.07009888 33.14884949 C9.03515322 36.38102683 8.99180992 39.61296894 8.94335938 42.8449707 C8.8827789 46.9704303 8.84943433 51.09560724 8.82330132 55.2214098 C8.79895387 58.40881086 8.75672012 61.59579637 8.70956802 64.78293419 C8.68981258 66.30297759 8.67626569 67.82311569 8.66924667 69.34327126 C8.58595835 84.28734922 8.58595835 84.28734922 4 91 C1.6111913 92.67724866 -0.40074708 93.76311413 -3 95 C-4.05703125 95.60328125 -5.1140625 96.2065625 -6.203125 96.828125 C-7.36453731 97.48966414 -8.52599604 98.15112179 -9.6875 98.8125 C-11.33298828 99.75029297 -11.33298828 99.75029297 -13.01171875 100.70703125 C-16 102 -16 102 -18.1953125 101.9140625 C-20.4263059 100.78407883 -21.61739583 99.50393986 -23.1875 97.5625 C-23.69667969 96.94503906 -24.20585938 96.32757813 -24.73046875 95.69140625 C-27.41270389 92.11784374 -27.13239823 89.39859405 -27.14526367 84.9675293 C-27.14862228 84.24375092 -27.1519809 83.51997253 -27.15544128 82.77426147 C-27.16496352 80.37422991 -27.1668952 77.97426805 -27.16796875 75.57421875 C-27.17118107 73.90753653 -27.17454512 72.24085459 -27.17805481 70.57417297 C-27.1840497 67.07621609 -27.1858944 63.57828393 -27.18530273 60.08032227 C-27.18520123 55.60127921 -27.19883933 51.12239512 -27.21607494 46.6433897 C-27.22720379 43.19897232 -27.22922165 39.75459321 -27.22869301 36.31015968 C-27.22987233 34.65917222 -27.23429145 33.00818374 -27.24202538 31.35721397 C-27.25184065 29.044915 -27.24894097 26.73295899 -27.24291992 24.4206543 C-27.24434494 23.10542282 -27.24576996 21.79019135 -27.24723816 20.43510437 C-26.8925084 15.50652154 -25.97649225 12.95267537 -22.4375 9.5 C-16.30317949 4.73387353 -8.02007136 -0.8467647 0 0 Z " fill="#0E3B95" transform="translate(144,68)"/>
<path d="M0 0 C0.33 2.64 0.66 5.28 1 8 C1.66 5.03 2.32 2.06 3 -1 C5.64 -1 8.28 -1 11 -1 C12.42258812 2.82320557 13.24042276 5.91281305 13 10 C13.66 10 14.32 10 15 10 C15 6.37 15 2.74 15 -1 C20.625 -2.125 20.625 -2.125 24 -1 C23.27643663 8.11689851 21.65707093 17.01638277 20 26 C16.37 26 12.74 26 9 26 C8.34 23.36 7.68 20.72 7 18 C6.34 20.64 5.68 23.28 5 26 C1.7 26 -1.6 26 -5 26 C-6.43963978 21.15529916 -7.62501745 16.33450942 -8.625 11.375 C-8.88539062 10.10398438 -9.14578125 8.83296875 -9.4140625 7.5234375 C-9.90335591 4.58115315 -10.12508607 1.96795135 -10 -1 C-6.06329512 -2.31223496 -3.87511856 -1.24296256 0 0 Z " fill="#1B3F8C" transform="translate(114,203)"/>
<path d="M0 0 C2.75059381 -0.08107646 5.49879021 -0.14052813 8.25 -0.1875 C9.02730469 -0.21263672 9.80460938 -0.23777344 10.60546875 -0.26367188 C14.02562589 -0.30752004 16.41356544 -0.27697756 19.5390625 1.19921875 C21.49140961 3.60572147 21.35228074 4.94534684 21.125 8 C20.80951171 12.24672693 20.80951171 12.24672693 23 16 C22.92693248 20.01871386 22.72661176 22.21353324 19.9609375 25.20703125 C16.04029498 27.58114064 13.1648426 27.45806239 8.6875 27.25 C7.57665039 27.22292969 7.57665039 27.22292969 6.44335938 27.1953125 C4.6283429 27.14847337 2.81399834 27.07673789 1 27 C-0.3308911 24.33821779 -0.11268993 22.31260604 -0.09765625 19.3359375 C-0.09443359 18.21445313 -0.09121094 17.09296875 -0.08789062 15.9375 C-0.07951172 14.761875 -0.07113281 13.58625 -0.0625 12.375 C-0.05798828 11.19164062 -0.05347656 10.00828125 -0.04882812 8.7890625 C-0.03701467 5.85932493 -0.02054258 2.92968728 0 0 Z M9 7 C9 7.66 9 8.32 9 9 C10.32 9 11.64 9 13 9 C13 8.34 13 7.68 13 7 C11.68 7 10.36 7 9 7 Z M9 16 C9 17.32 9 18.64 9 20 C10.65 19.67 12.3 19.34 14 19 C13.34 18.01 12.68 17.02 12 16 C11.01 16 10.02 16 9 16 Z " fill="#103A95" transform="translate(143,202)"/>
<path d="M0 0 C1.44993302 0.08787473 2.89920024 0.1873172 4.34765625 0.296875 C5.07662109 0.33683594 5.80558594 0.37679687 6.55664062 0.41796875 C10.27106269 0.66990938 12.25627348 0.94428649 15.41015625 3.046875 C16.49455204 5.95502735 17.23303982 8.01375615 17.41015625 11.046875 C16.87390625 12.18125 16.33765625 13.315625 15.78515625 14.484375 C14.08637346 17.82769961 14.08637346 17.82769961 15.09375 20.484375 C16.11034748 22.73566354 17.18859225 24.90062112 18.41015625 27.046875 C17.41015625 28.046875 17.41015625 28.046875 15.34375 28.14453125 C14.52003906 28.13292969 13.69632813 28.12132812 12.84765625 28.109375 C12.02136719 28.10035156 11.19507813 28.09132812 10.34375 28.08203125 C9.38662109 28.06462891 9.38662109 28.06462891 8.41015625 28.046875 C8.08015625 26.396875 7.75015625 24.746875 7.41015625 23.046875 C6.75015625 23.046875 6.09015625 23.046875 5.41015625 23.046875 C5.08015625 22.386875 4.75015625 21.726875 4.41015625 21.046875 C4.08015625 23.356875 3.75015625 25.666875 3.41015625 28.046875 C0.77015625 28.046875 -1.86984375 28.046875 -4.58984375 28.046875 C-6.17459326 23.29262648 -5.77432463 18.46290815 -5.77734375 13.484375 C-5.78958984 12.41767578 -5.80183594 11.35097656 -5.81445312 10.25195312 C-5.81638672 9.23423828 -5.81832031 8.21652344 -5.8203125 7.16796875 C-5.82442139 6.2339624 -5.82853027 5.29995605 -5.83276367 4.33764648 C-5.39677116 0.22617139 -3.95003632 0.05157828 0 0 Z M3.41015625 8.046875 C3.41015625 9.366875 3.41015625 10.686875 3.41015625 12.046875 C4.73015625 12.046875 6.05015625 12.046875 7.41015625 12.046875 C7.41015625 10.726875 7.41015625 9.406875 7.41015625 8.046875 C6.09015625 8.046875 4.77015625 8.046875 3.41015625 8.046875 Z " fill="#1F4697" transform="translate(235.58984375,200.953125)"/>
<path d="M0 0 C4.11775677 3.06641461 6.01373639 5.97005561 7 11 C6.98825639 16.96575625 5.35579962 20.83847087 1.80078125 25.609375 C-0.88183443 27.68098277 -3.09440521 27.43370534 -6.4375 27.4375 C-7.57058594 27.45683594 -8.70367187 27.47617188 -9.87109375 27.49609375 C-13.63649059 26.89908327 -14.70074509 25.98012766 -17 23 C-20.13782074 18.18334523 -19.59074449 12.52346103 -19 7 C-17.23697938 3.06710785 -16.08289035 1.57922042 -12.3125 -0.4375 C-7.99102762 -1.17133493 -4.23704599 -1.20388392 0 0 Z M-8 7 C-10.18939909 8.78107249 -10.18939909 8.78107249 -10.265625 11.09375 C-10.26046875 11.8878125 -10.2553125 12.681875 -10.25 13.5 C-10.25515625 14.2940625 -10.2603125 15.088125 -10.265625 15.90625 C-10.18939909 18.21892751 -10.18939909 18.21892751 -8 20 C-5.93400917 20.06754834 -5.93400917 20.06754834 -4 19 C-2.37253994 16.21006847 -1.95018542 14.53550672 -2.25 11.3125 C-2.85892483 8.83809494 -2.85892483 8.83809494 -5 7 C-5.99 7 -6.98 7 -8 7 Z " fill="#1C4494" transform="translate(190,202)"/>
<path d="M0 0 C2.85549546 1.38509095 3.92259621 2.50711546 6 5 C7.02835363 8.08506088 7.13368434 10.2694272 7.125 13.5 C7.12886719 14.93859375 7.12886719 14.93859375 7.1328125 16.40625 C7 19 7 19 6 22 C5.34 22 4.68 22 4 22 C3.67 22.99 3.34 23.98 3 25 C-0.5402964 27.64645919 -4.53389578 27.22780962 -8.75 27.125 C-11.1425 27.08375 -13.535 27.0425 -16 27 C-16 18.09 -16 9.18 -16 0 C-11.38453116 -2.30773442 -4.93066727 -0.82830733 0 0 Z M-7 7 C-7 11.29 -7 15.58 -7 20 C-5.35 19.67 -3.7 19.34 -2 19 C-2 15.37 -2 11.74 -2 8 C-3.65 7.67 -5.3 7.34 -7 7 Z " fill="#4A6DA9" transform="translate(275,202)"/>
<path d="M0 0 C3.92556909 3.46373743 4.00813562 7.82322058 4.5625 12.8125 C4.45932894 17.61464402 2.11894539 21.23690272 -0.875 24.875 C-5.07070596 26.97285298 -10.31720784 26.42266528 -14.875 25.875 C-18.39531969 23.34036982 -20.19284046 20.80979056 -21.875 16.875 C-22.51778281 11.67602141 -22.14332332 6.63847897 -19.875 1.875 C-14.39578601 -3.60421399 -6.69200304 -2.61860988 0 0 Z M-10.875 5.875 C-13.33824069 9.56986103 -13.26491688 11.50793092 -12.875 15.875 C-11.78825006 17.96484231 -11.78825006 17.96484231 -9.875 18.875 C-7.78785744 18.47312242 -7.78785744 18.47312242 -5.875 17.875 C-5.6523254 16.43965159 -5.44738094 15.00154475 -5.25 13.5625 C-5.07597656 12.36173828 -5.07597656 12.36173828 -4.8984375 11.13671875 C-4.65966593 8.58776785 -4.65966593 8.58776785 -6.875 5.875 C-8.195 5.875 -9.515 5.875 -10.875 5.875 Z " fill="#1D4291" transform="translate(95.875,203.125)"/>
<path d="M0 0 C0.33 0 0.66 0 1 0 C1.04125 1.299375 1.0825 2.59875 1.125 3.9375 C1.88482423 11.01056963 6.05739045 16.14002551 11 21 C8.32156064 22.51848531 5.63415558 24.01449742 2.9375 25.5 C2.18533203 25.92925781 1.43316406 26.35851562 0.65820312 26.80078125 C-4.08746268 29.38932624 -7.45603588 30.61522794 -13 30 C-18.5588685 28.07141297 -21.50700099 24.52108028 -25 20 C-22.51042452 17.90107599 -19.94583249 16.42622211 -17.03125 15.01953125 C-16.29519531 14.65923828 -15.55914062 14.29894531 -14.80078125 13.92773438 C-13.27451117 13.18792095 -11.74056477 12.46372711 -10.19921875 11.75585938 C-4.36070374 8.84682694 -2.40488704 6.05698944 0 0 Z " fill="#1451C8" transform="translate(151,151)"/>
<path d="M0 0 C1.2375 0.7425 1.2375 0.7425 2.5 1.5 C2.5 2.16 2.5 2.82 2.5 3.5 C5.30411371 5.21309552 5.30411371 5.21309552 8.5 5.1875 C9.16 4.960625 9.82 4.73375 10.5 4.5 C11.83333333 4.16666667 13.16666667 3.83333333 14.5 3.5 C14.5 4.16 14.5 4.82 14.5 5.5 C13.51 5.83 12.52 6.16 11.5 6.5 C11.17 7.16 10.84 7.82 10.5 8.5 C8.46256674 9.15612258 6.42432834 9.80981776 4.3828125 10.453125 C0.87121132 11.72834061 -2.46644426 13.28653452 -5.8125 14.9375 C-6.98425781 15.51371094 -8.15601563 16.08992188 -9.36328125 16.68359375 C-12.27414602 18.36921282 -14.2769667 20.00251814 -16.5 22.5 C-17.49 22.17 -18.48 21.84 -19.5 21.5 C-20.25069185 19.77014487 -20.99630322 18.03725932 -21.68359375 16.28125 C-23.36444872 12.61393007 -26.22452776 10.68364816 -29.5 8.5 C-20.88018657 1.79570067 -10.93806896 -4.68774384 0 0 Z " fill="#1351C7" transform="translate(170.5,58.5)"/>
<path d="M0 0 C1.22589844 0.15275391 1.22589844 0.15275391 2.4765625 0.30859375 C3.41628906 0.43427734 3.41628906 0.43427734 4.375 0.5625 C5.39793871 3.22214065 6.39563981 5.88667489 7.375 8.5625 C7.73464844 9.53832031 8.09429687 10.51414063 8.46484375 11.51953125 C10.42621528 17.06860728 11.91111695 21.66521357 11.375 27.5625 C8.405 27.5625 5.435 27.5625 2.375 27.5625 C1.715 25.9125 1.055 24.2625 0.375 22.5625 C-1.275 22.5625 -2.925 22.5625 -4.625 22.5625 C-4.625 24.2125 -4.625 25.8625 -4.625 27.5625 C-7.595 27.5625 -10.565 27.5625 -13.625 27.5625 C-12.47797191 22.92198533 -11.32136092 18.28407066 -10.15087891 13.64941406 C-9.68382083 11.79592641 -9.22236508 9.94102905 -8.76171875 8.0859375 C-8.51035156 7.10882813 -8.25898438 6.13171875 -8 5.125 C-7.78085938 4.26003906 -7.56171875 3.39507812 -7.3359375 2.50390625 C-5.96610755 -1.23678324 -3.41520506 -0.43909779 0 0 Z M-1.625 10.5625 C-0.625 14.5625 -0.625 14.5625 -0.625 14.5625 Z " fill="#184095" transform="translate(213.625,201.4375)"/>
<path d="M0 0 C1.87365234 -0.02126953 1.87365234 -0.02126953 3.78515625 -0.04296875 C6.9375 0.1875 6.9375 0.1875 8.9375 2.1875 C8.5625 5.3125 8.5625 5.3125 7.9375 8.1875 C4.6375 8.1875 1.3375 8.1875 -2.0625 8.1875 C-2.0625 9.1775 -2.0625 10.1675 -2.0625 11.1875 C-0.763125 11.166875 0.53625 11.14625 1.875 11.125 C3.22915633 11.10350546 4.58506083 11.11601801 5.9375 11.1875 C6.9375 12.1875 6.9375 12.1875 7 15.75 C6.979375 16.884375 6.95875 18.01875 6.9375 19.1875 C3.9675 19.1875 0.9975 19.1875 -2.0625 19.1875 C-2.0625 22.1575 -2.0625 25.1275 -2.0625 28.1875 C-4.7025 28.1875 -7.3425 28.1875 -10.0625 28.1875 C-10.0625 19.2775 -10.0625 10.3675 -10.0625 1.1875 C-6.55538381 0.01846127 -3.69467614 0.01910381 0 0 Z " fill="#133C8F" transform="translate(35.0625,200.8125)"/>
<path d="M0 0 C2.64 0.33 5.28 0.66 8 1 C8 7.27 8 13.54 8 20 C11.3 20.33 14.6 20.66 18 21 C18.04254356 22.99954746 18.04080783 25.00041636 18 27 C17 28 17 28 15.23413086 28.11352539 C14.48526611 28.10828857 13.73640137 28.10305176 12.96484375 28.09765625 C12.15595703 28.09443359 11.34707031 28.09121094 10.51367188 28.08789062 C9.66353516 28.07951172 8.81339844 28.07113281 7.9375 28.0625 C7.08349609 28.05798828 6.22949219 28.05347656 5.34960938 28.04882812 C3.23304337 28.03700373 1.11651315 28.01906769 -1 28 C-1.02886338 23.52084672 -1.04675187 19.04171709 -1.0625 14.5625 C-1.07087891 13.28310547 -1.07925781 12.00371094 -1.08789062 10.68554688 C-1.09111328 9.47060547 -1.09433594 8.25566406 -1.09765625 7.00390625 C-1.10289307 5.87799072 -1.10812988 4.7520752 -1.11352539 3.59204102 C-1 1 -1 1 0 0 Z " fill="#3058A1" transform="translate(51,201)"/>
<path d="M0 0 C12 0 12 0 17 3 C16.67 3.66 16.34 4.32 16 5 C15.38125 4.525625 14.7625 4.05125 14.125 3.5625 C9.83894324 1.41947162 5.73399291 1.26657436 1 1 C1 1.66 1 2.32 1 3 C2.98 3.495 2.98 3.495 5 4 C5 9.94 5 15.88 5 22 C6.65 21.34 8.3 20.68 10 20 C10.99 20 11.98 20 13 20 C13.96661363 16.87819599 13.98988909 14.47916205 13.5625 11.25 C13.46066406 10.45078125 13.35882813 9.6515625 13.25390625 8.828125 C13.17011719 8.22484375 13.08632813 7.6215625 13 7 C14.65 6.67 16.3 6.34 18 6 C18 11.28 18 16.56 18 22 C16.02 22.33 14.04 22.66 12 23 C12 23.66 12 24.32 12 25 C8.04 25 4.08 25 0 25 C0 16.75 0 8.5 0 0 Z " fill="#143C90" transform="translate(261,203)"/>
<path d="M0 0 C4.11775677 3.06641461 6.01373639 5.97005561 7 11 C6.99034976 15.90232431 6.24895758 20.17087143 3 24 C0.3125 24.8125 0.3125 24.8125 -2 25 C-1.34 24.01 -0.68 23.02 0 22 C0.66 22 1.32 22 2 22 C2.22226864 20.23086176 2.42733873 18.45955629 2.625 16.6875 C2.74101562 15.70136719 2.85703125 14.71523437 2.9765625 13.69921875 C3.25476995 10.77342584 3.25476995 10.77342584 1 8 C0.95101562 8.84304687 0.90203125 9.68609375 0.8515625 10.5546875 C0.77679688 11.65039062 0.70203125 12.74609375 0.625 13.875 C0.55539063 14.96554688 0.48578125 16.05609375 0.4140625 17.1796875 C0 20 0 20 -2 22 C-5.125 22.125 -5.125 22.125 -8 22 C-8 21.01 -8 20.02 -8 19 C-6.68 18.67 -5.36 18.34 -4 18 C-2.80011955 12.71800407 -2.80011955 12.71800407 -5 8 C-6.32 8.33 -7.64 8.66 -9 9 C-9.33 11.64 -9.66 14.28 -10 17 C-10.33 17 -10.66 17 -11 17 C-11 13.37 -11 9.74 -11 6 C-8.03 5.01 -5.06 4.02 -2 3 C-2 2.34 -2 1.68 -2 1 C-3.98073365 1.280828 -5.95958448 1.57496614 -7.9375 1.875 C-9.03964844 2.03742188 -10.14179688 2.19984375 -11.27734375 2.3671875 C-12.17582031 2.57601562 -13.07429687 2.78484375 -14 3 C-14.33 3.66 -14.66 4.32 -15 5 C-15.66 5 -16.32 5 -17 5 C-16.00827903 2.02483708 -15.27035683 1.13847545 -12.4375 -0.3125 C-8.04853635 -1.19029273 -4.32303981 -1.22831758 0 0 Z " fill="#3A5D9F" transform="translate(190,202)"/>
<path d="M0 0 C3.92556909 3.46373743 4.00813562 7.82322058 4.5625 12.8125 C4.45932894 17.61464402 2.11894539 21.23690272 -0.875 24.875 C-3.5860077 26.23050385 -5.78839169 26.04417207 -8.8125 26.0625 C-9.87339844 26.07667969 -10.93429688 26.09085938 -12.02734375 26.10546875 C-14.875 25.875 -14.875 25.875 -17.875 23.875 C-17.875 23.215 -17.875 22.555 -17.875 21.875 C-11.935 22.865 -11.935 22.865 -5.875 23.875 C-5.875 23.215 -5.875 22.555 -5.875 21.875 C-7.009375 21.565625 -8.14375 21.25625 -9.3125 20.9375 C-12.875 19.875 -12.875 19.875 -13.875 18.875 C-13.94705511 17.18891034 -13.95886068 15.49999341 -13.9375 13.8125 C-13.92847656 12.89339844 -13.91945313 11.97429687 -13.91015625 11.02734375 C-13.89275391 9.96193359 -13.89275391 9.96193359 -13.875 8.875 C-13.545 8.875 -13.215 8.875 -12.875 8.875 C-12.545 11.845 -12.215 14.815 -11.875 17.875 C-9.895 17.875 -7.915 17.875 -5.875 17.875 C-5.38 13.42 -5.38 13.42 -4.875 8.875 C-4.215 8.875 -3.555 8.875 -2.875 8.875 C-2.84801811 10.49990954 -2.82861243 12.12494633 -2.8125 13.75 C-2.80089844 14.65492188 -2.78929688 15.55984375 -2.77734375 16.4921875 C-2.875 18.875 -2.875 18.875 -3.875 20.875 C-2.885 20.545 -1.895 20.215 -0.875 19.875 C0.19159074 12.97098698 -0.02498742 7.62210469 -1.875 0.875 C-6.825 0.875 -11.775 0.875 -16.875 0.875 C-15.875 -1.125 -15.875 -1.125 -13.8125 -1.8125 C-8.89040204 -2.33612744 -4.61303866 -1.80510208 0 0 Z " fill="#2E5398" transform="translate(95.875,203.125)"/>
<path d="M0 0 C4.08375 -0.0928125 4.08375 -0.0928125 8.25 -0.1875 C9.10110352 -0.21481201 9.95220703 -0.24212402 10.82910156 -0.27026367 C14.16777729 -0.30703497 16.48558208 -0.24296354 19.5390625 1.19921875 C21.49140961 3.60572147 21.35228074 4.94534684 21.125 8 C20.80951171 12.24672693 20.80951171 12.24672693 23 16 C22.625 19.6875 22.625 19.6875 22 23 C21.67 23 21.34 23 21 23 C21 20.36 21 17.72 21 15 C20.67 15.33 20.34 15.66 20 16 C17.73676054 17.40476932 16.49819255 18.04270222 13.8125 17.8125 C13.214375 17.544375 12.61625 17.27625 12 17 C11.67 16.01 11.34 15.02 11 14 C12.32 13.67 13.64 13.34 15 13 C15 12.01 15 11.02 15 10 C14.01 10.66 13.02 11.32 12 12 C10.35 12 8.7 12 7 12 C7 8.7 7 5.4 7 2 C7.99 2 8.98 2 10 2 C10.33 2.66 10.66 3.32 11 4 C11.825 4.33 12.65 4.66 13.5 5 C16 6 16 6 17 8 C17.33 6.68 17.66 5.36 18 4 C14.17254549 2.25314692 10.87557277 1.65113667 6.6875 1.375 C4.810625 1.25125 2.93375 1.1275 1 1 C1 8.92 1 16.84 1 25 C0.67 25 0.34 25 0 25 C0 16.75 0 8.5 0 0 Z M9 7 C9 7.66 9 8.32 9 9 C10.32 9 11.64 9 13 9 C13 8.34 13 7.68 13 7 C11.68 7 10.36 7 9 7 Z " fill="#3B5D9F" transform="translate(143,202)"/>
<path d="M0 0 C-0.72356337 9.11689851 -2.34292907 18.01638277 -4 27 C-7.63 27 -11.26 27 -15 27 C-15 26.67 -15 26.34 -15 26 C-11.7 26 -8.4 26 -5 26 C-5.33 25.34 -5.66 24.68 -6 24 C-6.99 24 -7.98 24 -9 24 C-8.67 21.69 -8.34 19.38 -8 17 C-8.99 17.33 -9.98 17.66 -11 18 C-10.67 16.68 -10.34 15.36 -10 14 C-10.66 14 -11.32 14 -12 14 C-12 11.36 -12 8.72 -12 6 C-11.67 6 -11.34 6 -11 6 C-11 7.65 -11 9.3 -11 11 C-10.34 11 -9.68 11 -9 11 C-9 7.37 -9 3.74 -9 0 C-5.52176885 -1.15941038 -3.54104422 -0.70820884 0 0 Z " fill="#123A93" transform="translate(138,202)"/>
<path d="M0 0 C4.393125 0.4021875 4.393125 0.4021875 8.875 0.8125 C10.25727783 0.92815308 10.25727783 0.92815308 11.66748047 1.04614258 C12.39338379 1.11986084 13.11928711 1.1935791 13.8671875 1.26953125 C14.61081543 1.33760986 15.35444336 1.40568848 16.12060547 1.47583008 C18 2 18 2 20 5 C20.125 7.6875 20.125 7.6875 20 10 C19.34 10 18.68 10 18 10 C17.87625 9.030625 17.7525 8.06125 17.625 7.0625 C17.41875 6.051875 17.2125 5.04125 17 4 C16.34 3.67 15.68 3.34 15 3 C15 3.66 15 4.32 15 5 C12.69 5 10.38 5 8 5 C8 6.98 8 8.96 8 11 C8.99 11 9.98 11 11 11 C11 12.98 11 14.96 11 17 C9.68 16.67 8.36 16.34 7 16 C7.66 15.67 8.32 15.34 9 15 C8.67 14.34 8.34 13.68 8 13 C7.34 13.66 6.68 14.32 6 15 C5.01 15 4.02 15 3 15 C2.34 16.98 1.68 18.96 1 21 C0.67 21 0.34 21 0 21 C0 14.07 0 7.14 0 0 Z " fill="#143A8C" transform="translate(231,203)"/>
<path d="M0 0 C1.65 0 3.3 0 5 0 C5 0.66 5 1.32 5 2 C5.66 2 6.32 2 7 2 C7 5.63 7 9.26 7 13 C7.66 13 8.32 13 9 13 C9 13.99 9 14.98 9 16 C9.66 16 10.32 16 11 16 C10.67 18.31 10.34 20.62 10 23 C10.99 23 11.98 23 13 23 C13.33 22.34 13.66 21.68 14 21 C14 22.32 14 23.64 14 25 C10.7 25 7.4 25 4 25 C4.04125 23.824375 4.0825 22.64875 4.125 21.4375 C4.125 17.25233053 3.44322076 13.92876763 2 10 C1.34 9.67 0.68 9.34 0 9 C0 6.03 0 3.06 0 0 Z " fill="#173D8E" transform="translate(119,203)"/>
<path d="M0 0 C0.66 0.33 1.32 0.66 2 1 C2.66796875 3.6875 2.66796875 3.6875 3.1875 7 C3.45626953 8.6396875 3.45626953 8.6396875 3.73046875 10.3125 C3.81941406 11.199375 3.90835938 12.08625 4 13 C3.67 13.33 3.34 13.66 3 14 C3.99 14.33 4.98 14.66 6 15 C6.66666667 16.33333333 7.33333333 17.66666667 8 19 C8.99 19.33 9.98 19.66 11 20 C11 17.69 11 15.38 11 13 C13 15 13 15 13.125 18.625 C13.08375 19.73875 13.0425 20.8525 13 22 C10.03 22 7.06 22 4 22 C3.34 20.35 2.68 18.7 2 17 C0.35 17 -1.3 17 -3 17 C-3 18.65 -3 20.3 -3 22 C-5.97 22 -8.94 22 -12 22 C-12 21.34 -12 20.68 -12 20 C-9.69 20 -7.38 20 -5 20 C-5 18.35 -5 16.7 -5 15 C-4.34 15 -3.68 15 -3 15 C-3.061875 13.824375 -3.12375 12.64875 -3.1875 11.4375 C-3.21144173 6.96039699 -1.9879056 3.9758112 0 0 Z M0 5 C1 9 1 9 1 9 Z " fill="#183C8F" transform="translate(212,207)"/>
<path d="M0 0 C3.5 1.5 3.5 1.5 6 3 C6 3.66 6 4.32 6 5 C8.80411371 6.71309552 8.80411371 6.71309552 12 6.6875 C12.66 6.460625 13.32 6.23375 14 6 C15.33333333 5.66666667 16.66666667 5.33333333 18 5 C18 5.66 18 6.32 18 7 C17.01 7.33 16.02 7.66 15 8 C14.67 8.66 14.34 9.32 14 10 C12.1796875 10.78125 12.1796875 10.78125 9.875 11.5 C9.06933594 11.75394531 8.26367188 12.00789063 7.43359375 12.26953125 C4.29672121 13.21109652 1.156673 14.12687768 -2 15 C-2 14.34 -2 13.68 -2 13 C-1.01 13 -0.02 13 1 13 C1 12.34 1 11.68 1 11 C0.01 11 -0.98 11 -2 11 C-0.25 7.125 -0.25 7.125 2 6 C2 5.01 2 4.02 2 3 C-2.29 3 -6.58 3 -11 3 C-11 3.66 -11 4.32 -11 5 C-14.52948291 6.66670026 -16.28272326 7.13583456 -20 6 C-7.27097396 -1.12825458 -7.27097396 -1.12825458 0 0 Z " fill="#1F56C3" transform="translate(167,57)"/>
<path d="M0 0 C1.24910156 -0.00515625 2.49820313 -0.0103125 3.78515625 -0.015625 C6.9375 0.25 6.9375 0.25 8.9375 2.25 C8.5625 5.375 8.5625 5.375 7.9375 8.25 C4.6375 8.25 1.3375 8.25 -2.0625 8.25 C-2.0625 9.24 -2.0625 10.23 -2.0625 11.25 C0.5775 11.25 3.2175 11.25 5.9375 11.25 C4.9475 12.735 4.9475 12.735 3.9375 14.25 C0.4375 14.625 0.4375 14.625 -3.0625 14.25 C-5.0625 11.25 -5.0625 11.25 -4.75 8.6875 C-4.0625 6.25 -4.0625 6.25 -3.0625 4.25 C-5.3725 3.59 -7.6825 2.93 -10.0625 2.25 C-6.37155532 -0.21062979 -4.39205805 -0.01816777 0 0 Z " fill="#4062A4" transform="translate(35.0625,200.75)"/>
<path d="M0 0 C0.99 0.33 1.98 0.66 3 1 C3.10836453 2.43583001 3.18576167 3.8740202 3.25 5.3125 C3.29640625 6.11300781 3.3428125 6.91351563 3.390625 7.73828125 C3 10 3 10 1.5 11.78125 C-2.04635096 13.51009609 -5.39970605 13.32015147 -9.25 13.1875 C-10.36761719 13.16719727 -10.36761719 13.16719727 -11.5078125 13.14648438 C-13.33885416 13.11127204 -15.16952169 13.05746851 -17 13 C-15 10 -15 10 -12.375 9.3125 C-11.59125 9.209375 -10.8075 9.10625 -10 9 C-10.66 8.67 -11.32 8.34 -12 8 C-12 6.02 -12 4.04 -12 2 C-11.01 2 -10.02 2 -9 2 C-9 3.32 -9 4.64 -9 6 C-6.64828869 5.40138258 -4.3140622 4.73075648 -2 4 C-1.67 3.34 -1.34 2.68 -1 2 C-0.67 1.34 -0.34 0.68 0 0 Z " fill="#264994" transform="translate(161,216)"/>
<path d="M0 0 C-1.27079593 3.8123878 -2.60677884 4.027197 -6 6 C-9.92455117 9.47603104 -11.85698127 12.02082105 -12.24050903 17.32830811 C-12.24628293 18.66515619 -12.24104394 20.00207987 -12.22705078 21.33886719 C-12.22734283 22.07096909 -12.22763489 22.80307098 -12.22793579 23.55735779 C-12.22654547 25.97065189 -12.21099848 28.38363501 -12.1953125 30.796875 C-12.19158131 32.47267488 -12.18873484 34.14847694 -12.18673706 35.82427979 C-12.17910897 40.23018439 -12.15946756 44.63595667 -12.1373291 49.04180908 C-12.11685293 53.53957326 -12.10773155 58.03735887 -12.09765625 62.53515625 C-12.07622089 71.3568289 -12.04209487 80.17840344 -12 89 C-14.89403451 86.10596549 -14.25387854 84.01906829 -14.25878906 79.9675293 C-14.2622937 79.24375092 -14.26579834 78.51997253 -14.26940918 77.77426147 C-14.27823341 75.37415051 -14.27237319 72.97433288 -14.265625 70.57421875 C-14.2669719 68.90753625 -14.26891263 67.24085413 -14.27142334 65.57417297 C-14.2743759 62.07618479 -14.27007441 58.57829861 -14.26074219 55.08032227 C-14.24937401 50.60126165 -14.25588948 46.1224414 -14.26788712 41.6433897 C-14.27512481 38.19896139 -14.27280856 34.75458973 -14.26763153 31.31015968 C-14.26629894 29.65917749 -14.26792907 28.00819012 -14.27259064 26.35721397 C-14.2776843 24.04488959 -14.26990479 21.73295011 -14.25878906 19.4206543 C-14.25719788 18.10542282 -14.25560669 16.79019135 -14.25396729 15.43510437 C-13.8718756 10.26701817 -12.91896483 7.85903234 -9.125 4.3125 C-3.2972973 0 -3.2972973 0 0 0 Z " fill="#3056A5" transform="translate(131,73)"/>
<path d="M0 0 C0.66 0.33 1.32 0.66 2 1 C2 1.99 2 2.98 2 4 C2.66 4 3.32 4 4 4 C4.33 4.99 4.66 5.98 5 7 C5.66 7.33 6.32 7.66 7 8 C7.06956765 18.32703679 7.12284568 28.65401766 7.15543652 38.98124123 C7.17107997 43.77680372 7.19229416 48.57220567 7.22631836 53.36767578 C7.25895885 57.99719187 7.27686295 62.6265537 7.28463173 67.25617599 C7.29016681 69.02079063 7.30097554 70.78539701 7.31719017 72.54994583 C7.33902695 75.02518078 7.34196434 77.49978159 7.34057617 79.97509766 C7.35675491 81.0648288 7.35675491 81.0648288 7.3732605 82.17657471 C7.34497616 86.84981055 6.37394436 89.98897004 4 94 C3.01 93.67 2.02 93.34 1 93 C1.474375 92.4225 1.94875 91.845 2.4375 91.25 C5.38675705 87.00306985 5.13424195 82.91522425 5.16113281 77.83227539 C5.16858017 76.76080009 5.16858017 76.76080009 5.17617798 75.66767883 C5.19075117 73.31099475 5.19759259 70.95437793 5.203125 68.59765625 C5.20887932 66.95625304 5.21463702 65.31484984 5.22039795 63.67344666 C5.23089337 60.23452441 5.23674594 56.79562545 5.24023438 53.35668945 C5.2457238 48.9538625 5.26976739 44.55134405 5.29820633 40.14861393 C5.31684194 36.75910036 5.32203874 33.3696611 5.32357025 29.98010063 C5.32659394 28.35701239 5.33461294 26.73392537 5.34775543 25.11088753 C5.36483978 22.83939291 5.36293052 20.56865221 5.35644531 18.29711914 C5.36009094 17.00568497 5.36373657 15.71425079 5.36749268 14.38368225 C4.9729282 10.75073688 4.17682322 8.89813097 2 6 C0.68036291 4.98199424 -0.65009646 3.97751635 -2 3 C-2 2.34 -2 1.68 -2 1 C-1.34 0.67 -0.68 0.34 0 0 Z " fill="#133786" transform="translate(181,66)"/>
<path d="M0 0 C1.4606285 2.64738916 2 3.89448334 2 7 C2.66 7 3.32 7 4 7 C4 5.68 4 4.36 4 3 C4.66 3 5.32 3 6 3 C6.33 2.34 6.66 1.68 7 1 C8 2 8 2 8.09765625 4.72265625 C8.08605469 5.82480469 8.07445313 6.92695313 8.0625 8.0625 C8.05347656 9.16722656 8.04445313 10.27195313 8.03515625 11.41015625 C8.02355469 12.26480469 8.01195313 13.11945313 8 14 C5.04335481 15.4783226 2.25770263 15.06032783 -1 15 C-1.9807664 12.05770079 -2.16488128 10.0091216 -2.1875 6.9375 C-2.20167969 6.05964844 -2.21585937 5.18179688 -2.23046875 4.27734375 C-2 2 -2 2 0 0 Z " fill="#113B92" transform="translate(111,212)"/>
<path d="M0 0 C1.98 0 3.96 0 6 0 C2.44947667 2.88197695 -1.41028561 4.94063435 -5.4375 7.0625 C-6.09298828 7.41376953 -6.74847656 7.76503906 -7.42382812 8.12695312 C-17.80029793 13.63262266 -17.80029793 13.63262266 -24 13 C-29.67857143 10.64285714 -29.67857143 10.64285714 -31 8 C-27.04 8.33 -23.08 8.66 -19 9 C-18.34 8.01 -17.68 7.02 -17 6 C-13.8125 5.375 -13.8125 5.375 -10 5 C-8.0509375 4.7215625 -8.0509375 4.7215625 -6.0625 4.4375 C-4.5465625 4.2209375 -4.5465625 4.2209375 -3 4 C-3 3.34 -3 2.68 -3 2 C-2.01 2 -1.02 2 0 2 C0 1.34 0 0.68 0 0 Z " fill="#254A94" transform="translate(197,168)"/>
<path d="M0 0 C0.33 0 0.66 0 1 0 C1.00586624 0.88869781 1.01173248 1.77739563 1.01777649 2.69302368 C1.07574683 11.07953336 1.14784852 19.46577795 1.23571491 27.8520298 C1.28038955 32.16321559 1.31965198 36.47430752 1.34643555 40.78564453 C1.37249769 44.94850242 1.4129204 49.11099854 1.46318626 53.27363205 C1.47983536 54.85954657 1.49136182 56.44552363 1.49761391 58.03151321 C1.50727662 60.25788294 1.53535988 62.48333126 1.56762695 64.70947266 C1.57873001 65.97522125 1.58983307 67.24096985 1.60127258 68.54507446 C2.21227881 73.83937059 4.19496363 77.37615583 8 81 C8 81.66 8 82.32 8 83 C9.65 83 11.3 83 13 83 C12.01 83.99 12.01 83.99 11 85 C9.125 84.9375 9.125 84.9375 7 84 C4.9375 81.75 4.9375 81.75 3 79 C2.47206345 78.27009354 1.94412689 77.54018707 1.40019226 76.78816223 C-0.39263723 73.21815287 -0.36096175 70.62818216 -0.34057617 66.6394043 C-0.34101425 65.91690994 -0.34145233 65.19441559 -0.34190369 64.45002747 C-0.33982244 62.07447793 -0.31652374 59.69964418 -0.29296875 57.32421875 C-0.28737041 55.67227056 -0.28310144 54.02031738 -0.28010559 52.36836243 C-0.26867551 48.02979677 -0.2392243 43.69153453 -0.20599365 39.35308838 C-0.17525306 34.92228296 -0.16159174 30.4914283 -0.14648438 26.06054688 C-0.11435268 17.373559 -0.06317876 8.68681729 0 0 Z " fill="#052158" transform="translate(152,86)"/>
<path d="M0 0 C0.33 0.66 0.66 1.32 1 2 C1.66 2 2.32 2 3 2 C3 2.99 3 3.98 3 5 C5.64 4.34 8.28 3.68 11 3 C11 2.01 11 1.02 11 0 C12.98 0 14.96 0 17 0 C15.31135449 3.37729102 11.63387969 4.48103752 8.375 6.125 C7.67503906 6.49753906 6.97507813 6.87007812 6.25390625 7.25390625 C1.66850518 9.57638212 -1.74940232 10.55269449 -7 10 C-10.4375 8.5 -10.4375 8.5 -13 7 C-13 6.34 -13 5.68 -13 5 C-11.68 5 -10.36 5 -9 5 C-8.67 5.33 -8.34 5.66 -8 6 C-8 5.67 -8 5.34 -8 5 C-5.03 5 -2.06 5 1 5 C0.34 3.68 -0.32 2.36 -1 1 C-0.67 0.67 -0.34 0.34 0 0 Z " fill="#1050D1" transform="translate(145,171)"/>
<path d="M0 0 C0.66 0 1.32 0 2 0 C2 7.59 2 15.18 2 23 C3.32 23 4.64 23 6 23 C6 20.69 6 18.38 6 16 C9.3 16 12.6 16 16 16 C16 14.02 16 12.04 16 10 C16.33 10 16.66 10 17 10 C17 12.31 17 14.62 17 17 C14.03 17 11.06 17 8 17 C8 19.97 8 22.94 8 26 C5.36 26 2.72 26 0 26 C0 17.42 0 8.84 0 0 Z " fill="#2E4F8C" transform="translate(25,203)"/>
<path d="M0 0 C1.2375 0.7425 1.2375 0.7425 2.5 1.5 C2.17 2.16 1.84 2.82 1.5 3.5 C0.18 3.5 -1.14 3.5 -2.5 3.5 C-2.5 2.84 -2.5 2.18 -2.5 1.5 C-10.86179692 1.69202456 -17.03187306 3.79684421 -23.5078125 9.1640625 C-25.5 10.5 -25.5 10.5 -29.5 10.5 C-29.5 9.51 -29.5 8.52 -29.5 7.5 C-27.06401192 6.18462636 -24.6263175 4.87260857 -22.1875 3.5625 C-21.49720703 3.18931641 -20.80691406 2.81613281 -20.09570312 2.43164062 C-19.42861328 2.07392578 -18.76152344 1.71621094 -18.07421875 1.34765625 C-17.15515747 0.8527771 -17.15515747 0.8527771 -16.2175293 0.34790039 C-10.71625582 -2.36793796 -5.51514546 -2.36363377 0 0 Z " fill="#B2C8E6" transform="translate(135.5,58.5)"/>
<path d="M0 0 C12 0 12 0 17 3 C17.3125 6.1875 17.3125 6.1875 17 9 C16.608125 8.38125 16.21625 7.7625 15.8125 7.125 C13.72282509 4.67503632 12.02536673 3.98120002 9 3 C9 2.34 9 1.68 9 1 C8.01 1 7.02 1 6 1 C6 3.64 6 6.28 6 9 C5.71125 8.360625 5.4225 7.72125 5.125 7.0625 C4.17176549 4.84793921 4.17176549 4.84793921 2 4 C2 10.27 2 16.54 2 23 C4.64 23.33 7.28 23.66 10 24 C10 24.33 10 24.66 10 25 C6.7 25 3.4 25 0 25 C0 16.75 0 8.5 0 0 Z " fill="#163C8C" transform="translate(144,203)"/>
<path d="M0 0 C3.43856429 3.03402731 3.91784394 6.51253942 4.30859375 10.96875 C4.42884847 14.76031067 4.25576203 17.67885695 2.125 20.875 C1.135 20.545 0.145 20.215 -0.875 19.875 C-0.77960938 19.25753906 -0.68421875 18.64007813 -0.5859375 18.00390625 C0.23436826 11.73715174 -0.20434928 6.96796145 -1.875 0.875 C-6.825 0.875 -11.775 0.875 -16.875 0.875 C-15.875 -1.125 -15.875 -1.125 -13.8125 -1.8125 C-8.89040204 -2.33612744 -4.61303866 -1.80510208 0 0 Z " fill="#3B5C9D" transform="translate(95.875,203.125)"/>
<path d="M0 0 C1.22589844 0.15275391 1.22589844 0.15275391 2.4765625 0.30859375 C3.41628906 0.43427734 3.41628906 0.43427734 4.375 0.5625 C5.11211189 2.50579497 5.84733462 4.44983999 6.5703125 6.3984375 C7.24306578 8.2076866 7.93207001 10.01088203 8.625 11.8125 C9.41306745 14.70208063 9.20597703 15.7846625 8.375 18.5625 C5.08732131 13.21243984 2.77816925 8.87881828 2.375 2.5625 C0.395 2.5625 -1.585 2.5625 -3.625 2.5625 C-4.285 4.5425 -4.945 6.5225 -5.625 8.5625 C-6.285 8.5625 -6.945 8.5625 -7.625 8.5625 C-7.0390625 2.41015625 -7.0390625 2.41015625 -6.625 0.5625 C-4.10446405 -0.69776798 -2.7707902 -0.35624445 0 0 Z " fill="#516FA2" transform="translate(213.625,201.4375)"/>
<path d="M0 0 C0.33 0 0.66 0 1 0 C1.33 5.94 1.66 11.88 2 18 C2.66 16.68 3.32 15.36 4 14 C4.99 14 5.98 14 7 14 C7.66 13.34 8.32 12.68 9 12 C9.33 12.99 9.66 13.98 10 15 C9.34 15 8.68 15 8 15 C8 17.97 8 20.94 8 24 C5.66705225 24.04241723 3.33297433 24.04092937 1 24 C0 23 0 23 -0.11352539 20.77514648 C-0.10828857 19.81680908 -0.10305176 18.85847168 -0.09765625 17.87109375 C-0.09443359 16.83662109 -0.09121094 15.80214844 -0.08789062 14.73632812 C-0.07951172 13.64771484 -0.07113281 12.55910156 -0.0625 11.4375 C-0.05798828 10.34501953 -0.05347656 9.25253906 -0.04882812 8.12695312 C-0.03699826 5.41791505 -0.02051543 2.70898401 0 0 Z " fill="#254EAA" transform="translate(230,203)"/>
<path d="M0 0 C2.64 0 5.28 0 8 0 C7.67 0.99 7.34 1.98 7 3 C7 2.34 7 1.68 7 1 C5.35 1 3.7 1 2 1 C2.33 3.97 2.66 6.94 3 10 C3.66 10 4.32 10 5 10 C5.39063507 11.43333021 5.76198474 12.87192679 6.125 14.3125 C6.33382812 15.11300781 6.54265625 15.91351563 6.7578125 16.73828125 C7 19 7 19 5 22 C4.67 21.01 4.34 20.02 4 19 C3.34 19.99 2.68 20.98 2 22 C1.67 18.7 1.34 15.4 1 12 C0.01 12.33 -0.98 12.66 -2 13 C-2.73323796 15.01508358 -2.73323796 15.01508358 -3 17 C-2.36934845 11.2190275 -1.34844868 5.6556294 0 0 Z " fill="#4363A3" transform="translate(117,202)"/>
<path d="M0 0 C0.33 0 0.66 0 1 0 C1.03738281 0.58007812 1.07476562 1.16015625 1.11328125 1.7578125 C1.53903667 6.81678864 2.37138991 10.54279158 5 15 C4.01 15 3.02 15 2 15 C0.3125 13 0.3125 13 -1 11 C-5.23662431 11.94147207 -8.92494724 13.29203843 -12.5625 15.6875 C-15 17 -15 17 -17.15234375 16.58203125 C-17.76207031 16.38996094 -18.37179688 16.19789063 -19 16 C-17.44539062 15.27296875 -17.44539062 15.27296875 -15.859375 14.53125 C-7.04252272 10.63643009 -7.04252272 10.63643009 -1.0625 3.5 C-0.5365625 1.7675 -0.5365625 1.7675 0 0 Z " fill="#1A4EBA" transform="translate(151,151)"/>
<path d="M0 0 C0.33 0 0.66 0 1 0 C1 7.92 1 15.84 1 24 C5.95 24 10.9 24 16 24 C16 22.68 16 21.36 16 20 C14.35 20 12.7 20 11 20 C11 19.67 11 19.34 11 19 C13.31 19 15.62 19 18 19 C18.04254356 20.99954746 18.04080783 23.00041636 18 25 C17 26 17 26 13.18359375 26.09765625 C11.60152953 26.09191138 10.01948969 26.07889593 8.4375 26.0625 C4.2609375 26.0315625 4.2609375 26.0315625 0 26 C0 17.42 0 8.84 0 0 Z " fill="#405F9D" transform="translate(51,203)"/>
<path d="M0 0 C4 4 4 4 4.34765625 6.18359375 C3.82117062 10.34499387 3.29132215 12.60347818 0.75 16.0625 C-2.21476014 18.15130828 -3.46692951 18.50472436 -7 18 C-7.33 17.01 -7.66 16.02 -8 15 C-5.69 14.34 -3.38 13.68 -1 13 C-0.67 8.71 -0.34 4.42 0 0 Z " fill="#0C3B94" transform="translate(190,209)"/>
<path d="M0 0 C0.99 0 1.98 0 3 0 C5.20927172 5.97802937 4.93213141 10.73960391 4 17 C2.68 17.33 1.36 17.66 0 18 C0.33 14.04 0.66 10.08 1 6 C0.34 6 -0.32 6 -1 6 C-0.67 4.02 -0.34 2.04 0 0 Z " fill="#0D3B93" transform="translate(92,206)"/>
<path d="M0 0 C2.60508636 0.11391632 5.20845546 0.24065548 7.8125 0.375 C8.55048828 0.4059375 9.28847656 0.436875 10.04882812 0.46875 C13.81893115 0.67346148 15.79650741 0.86433827 19 3 C19.80078125 4.875 19.80078125 4.875 20.3125 7 C20.49425781 7.70125 20.67601562 8.4025 20.86328125 9.125 C20.90839844 9.74375 20.95351562 10.3625 21 11 C20.34 11.66 19.68 12.32 19 13 C18.34 10.36 17.68 7.72 17 5 C11.39 4.34 5.78 3.68 0 3 C0 2.01 0 1.02 0 0 Z " fill="#5B77AC" transform="translate(232,201)"/>
<path d="M0 0 C0.33 0 0.66 0 1 0 C1.07347656 1.66289062 1.07347656 1.66289062 1.1484375 3.359375 C1.22349215 4.82294065 1.29903881 6.28648112 1.375 7.75 C1.42140625 8.84441406 1.42140625 8.84441406 1.46875 9.9609375 C1.6748494 13.73942656 1.91512843 16.77946668 4 20 C4.66 20 5.32 20 6 20 C6 21.32 6 22.64 6 24 C6.99 24 7.98 24 9 24 C8.67 25.32 8.34 26.64 8 28 C2.51567591 22.66390089 -0.79743522 19.41640596 -1.08984375 11.59765625 C-1.14339703 7.5454578 -1.13923804 3.91500057 0 0 Z " fill="#B9CAE8" transform="translate(82,143)"/>
<path d="M0 0 C2 2 2 2 3.125 5.375 C4.77257174 9.50686841 7.40111602 10.66822834 11.35546875 12.37109375 C11.89816406 12.57863281 12.44085938 12.78617188 13 13 C13 13.66 13 14.32 13 15 C8.11476189 15.19157797 5.68510114 14.87404046 1 13 C0.67 8.71 0.34 4.42 0 0 Z " fill="#0D3A95" transform="translate(77,212)"/>
<path d="M0 0 C0 3.3 0 6.6 0 10 C-0.33 10 -0.66 10 -1 10 C-1 8.02 -1 6.04 -1 4 C-1.66 4 -2.32 4 -3 4 C-3 3.01 -3 2.02 -3 1 C-3.99 1.33 -4.98 1.66 -6 2 C-6.33 5.63 -6.66 9.26 -7 13 C-7.33 13 -7.66 13 -8 13 C-10.29612756 3.58997722 -10.29612756 3.58997722 -10 -1 C-6.06329512 -2.31223496 -3.87511856 -1.24296256 0 0 Z " fill="#5D7BA9" transform="translate(114,203)"/>
<path d="M0 0 C4.1146875 -0.0928125 4.1146875 -0.0928125 8.3125 -0.1875 C9.60281128 -0.22846802 9.60281128 -0.22846802 10.91918945 -0.27026367 C11.60198975 -0.27775635 12.28479004 -0.28524902 12.98828125 -0.29296875 C14.03302612 -0.31653442 14.03302612 -0.31653442 15.09887695 -0.34057617 C17.54489783 0.09761557 18.42702086 1.13437358 20 3 C18.1875 3.625 18.1875 3.625 16 4 C15.01 3.34 14.02 2.68 13 2 C10.03157342 1.54084493 10.03157342 1.54084493 6.8125 1.375 C4.894375 1.25125 2.97625 1.1275 1 1 C1 8.92 1 16.84 1 25 C0.67 25 0.34 25 0 25 C0 16.75 0 8.5 0 0 Z " fill="#6683B3" transform="translate(143,202)"/>
<path d="M0 0 C0.99 0 1.98 0 3 0 C3.33 0.66 3.66 1.32 4 2 C9.35003168 3.15866976 14.66632103 3.26323976 20 2 C20 2.99 20 3.98 20 5 C16.33569986 7.34515209 13.27824017 7.36881381 9 7 C4.82089868 5.39265334 2.37058485 3.81927559 0 0 Z " fill="#ABBFE5" transform="translate(94,174)"/>
<path d="M0 0 C2.76813126 0.28635841 3.8312917 0.81924111 5.75 2.875 C7.91397991 8.28494978 7.83929438 14.48211685 6 20 C5.34 20 4.68 20 4 20 C3.93941406 18.95199219 3.87882812 17.90398437 3.81640625 16.82421875 C3.73198262 15.44529952 3.64733553 14.06639395 3.5625 12.6875 C3.52318359 11.99720703 3.48386719 11.30691406 3.44335938 10.59570312 C3.17270745 4.71859234 3.17270745 4.71859234 0 0 Z " fill="#375397" transform="translate(275,204)"/>
<path d="M0 0 C0.99 0 1.98 0 3 0 C3.33 0.66 3.66 1.32 4 2 C6.02463255 2.65213292 6.02463255 2.65213292 8 3 C8.1875 5.375 8.1875 5.375 8 8 C5 10 5 10 0 10 C0 6.7 0 3.4 0 0 Z M2 5 C2 5.66 2 6.32 2 7 C3.32 7 4.64 7 6 7 C6 6.34 6 5.68 6 5 C4.68 5 3.36 5 2 5 Z " fill="#335596" transform="translate(150,204)"/>
<path d="M0 0 C3.5 1.5 3.5 1.5 6 3 C6 3.66 6 4.32 6 5 C5.01 5 4.02 5 3 5 C2.67 4.34 2.34 3.68 2 3 C-2.29 3 -6.58 3 -11 3 C-11 3.66 -11 4.32 -11 5 C-14.52948291 6.66670026 -16.28272326 7.13583456 -20 6 C-7.27097396 -1.12825458 -7.27097396 -1.12825458 0 0 Z " fill="#588AC7" transform="translate(167,57)"/>
<path d="M0 0 C1.98 0.66 3.96 1.32 6 2 C5.01 2.495 5.01 2.495 4 3 C3.01 2.67 2.02 2.34 1 2 C1.33 5.96 1.66 9.92 2 14 C3.32 14 4.64 14 6 14 C6 11.03 6 8.06 6 5 C6.66 5 7.32 5 8 5 C9.33045356 12.37796976 9.33045356 12.37796976 7.9375 15 C6 16 6 16 0 16 C0 10.72 0 5.44 0 0 Z " fill="#5573B0" transform="translate(267,207)"/>
<path d="M0 0 C0 0.33 0 0.66 0 1 C-2.31 1 -4.62 1 -7 1 C-7.33 6.28 -7.66 11.56 -8 17 C-8.99 17.33 -9.98 17.66 -11 18 C-10.67 16.68 -10.34 15.36 -10 14 C-10.66 14 -11.32 14 -12 14 C-12 11.36 -12 8.72 -12 6 C-11.67 6 -11.34 6 -11 6 C-11 7.65 -11 9.3 -11 11 C-10.34 11 -9.68 11 -9 11 C-9 7.37 -9 3.74 -9 0 C-5.52176885 -1.15941038 -3.54104422 -0.70820884 0 0 Z " fill="#5D7EAE" transform="translate(138,202)"/>
<path d="M0 0 C0.66 0 1.32 0 2 0 C1.29411026 7.05889737 0.21786614 14.01204964 -1 21 C-4.63 21 -8.26 21 -12 21 C-12 20.67 -12 20.34 -12 20 C-8.7 20 -5.4 20 -2 20 C-2.20625 18.783125 -2.4125 17.56625 -2.625 16.3125 C-3.10012742 12.55107458 -2.60154014 10.47000364 -1 7 C-0.6186926 4.67402489 -0.27539746 2.34087842 0 0 Z " fill="#4B70A3" transform="translate(135,208)"/>
<path d="M0 0 C0 1.32 0 2.64 0 4 C-1.98567708 4.48828125 -3.97135417 4.9765625 -5.95703125 5.46484375 C-7.65683202 5.91010705 -9.33301954 6.44433985 -11 7 C-10.8125 4.625 -10.8125 4.625 -10 2 C-6.65842753 0.05074939 -3.81884554 -0.21821974 0 0 Z " fill="#103A93" transform="translate(91,203)"/>
<path d="M0 0 C-1.27079593 3.8123878 -2.60677884 4.027197 -6 6 C-8.75815754 8.44293953 -10.54696249 10.60957914 -12 14 C-12.33 14 -12.66 14 -13 14 C-13.4375 11.375 -13.4375 11.375 -13 8 C-9.87353112 4.33092082 -5.04228582 0 0 0 Z " fill="#274E9C" transform="translate(131,73)"/>
<path d="M0 0 C0.99 0.33 1.98 0.66 3 1 C4.58072959 4.28305377 5.84845643 7.54536928 7 11 C6 12 6 12 3.93359375 12.09765625 C3.10988281 12.08605469 2.28617188 12.07445312 1.4375 12.0625 C0.61121094 12.05347656 -0.21507812 12.04445312 -1.06640625 12.03515625 C-1.70449219 12.02355469 -2.34257812 12.01195312 -3 12 C-3.33 10.68 -3.66 9.36 -4 8 C-3.34 8.66 -2.68 9.32 -2 10 C-0.68 10 0.64 10 2 10 C1.34 6.7 0.68 3.4 0 0 Z " fill="#315C9A" transform="translate(247,217)"/>
<path d="M0 0 C0.99 0 1.98 0 3 0 C3.45374191 5.67177385 2.65083143 8.5975268 -1 13 C-1.66 13 -2.32 13 -3 13 C-3 11.35 -3 9.7 -3 8 C-2.34 8 -1.68 8 -1 8 C-0.67 5.36 -0.34 2.72 0 0 Z " fill="#123A89" transform="translate(176,211)"/>
<path d="M0 0 C1.33897583 0.95043374 2.67105427 1.91059147 4 2.875 C5.11375 3.67550781 5.11375 3.67550781 6.25 4.4921875 C6.8275 4.98976563 7.405 5.48734375 8 6 C8 6.66 8 7.32 8 8 C8.99 8.33 9.98 8.66 11 9 C11 9.66 11 10.32 11 11 C11.99 11.33 12.98 11.66 14 12 C13.01 12.33 12.02 12.66 11 13 C10.67 12.01 10.34 11.02 10 10 C9.21625 10.04125 8.4325 10.0825 7.625 10.125 C5 10 5 10 3 8 C1.85179234 5.36587655 0.90883626 2.72650879 0 0 Z " fill="#4262A2" transform="translate(206,60)"/>
<path d="M0 0 C0.33 0 0.66 0 1 0 C1.28875 1.2375 1.5775 2.475 1.875 3.75 C2.85368194 7.63050811 3.74018989 10.74018989 6.625 13.625 C7.07875 14.07875 7.5325 14.5325 8 15 C8 15.66 8 16.32 8 17 C9.65 17 11.3 17 13 17 C12.34 17.66 11.68 18.32 11 19 C9.125 18.9375 9.125 18.9375 7 18 C4.9375 15.75 4.9375 15.75 3 13 C2.13375 11.8553125 2.13375 11.8553125 1.25 10.6875 C-0.48993424 6.94664138 -0.20857337 4.10194286 0 0 Z " fill="#052565" transform="translate(152,152)"/>
<path d="M0 0 C2 2 2 2 2.125 5.625 C2.08375 6.73875 2.0425 7.8525 2 9 C-0.97 9 -3.94 9 -7 9 C-7.66 7.02 -8.32 5.04 -9 3 C-8.01 3 -7.02 3 -6 3 C-5.67 3.99 -5.34 4.98 -5 6 C-3.35 6.33 -1.7 6.66 0 7 C0 4.69 0 2.38 0 0 Z " fill="#4F71AA" transform="translate(223,220)"/>
<path d="M0 0 C2.39073445 3.82517513 2.55966552 7.59665524 3 12 C2.34 12 1.68 12 1 12 C0.67 13.32 0.34 14.64 0 16 C-1.36538938 13.26922124 -1.13231826 11.04439633 -1.125 8 C-1.12757813 6.9275 -1.13015625 5.855 -1.1328125 4.75 C-1 2 -1 2 0 0 Z " fill="#2C559C" transform="translate(172,207)"/>
<path d="M0 0 C1.32 0.33 2.64 0.66 4 1 C4.33 3.64 4.66 6.28 5 9 C3.35 8.67 1.7 8.34 0 8 C0 5.36 0 2.72 0 0 Z " fill="#0E3B93" transform="translate(119,204)"/>
<path d="M0 0 C0 1.98 0 3.96 0 6 C-0.99 6.495 -0.99 6.495 -2 7 C-2.38995102 8.86492402 -2.38995102 8.86492402 -2.5 11 C-2.65625 13.1875 -2.65625 13.1875 -3 15 C-3.99 15.495 -3.99 15.495 -5 16 C-5.21502018 10.62449542 -5.25603962 6.01342137 -3 1 C-1 0 -1 0 0 0 Z " fill="#5A78AF" transform="translate(79,204)"/>
<path d="M0 0 C0 0.66 0 1.32 0 2 C-1.32 1.67 -2.64 1.34 -4 1 C-4 0.34 -4 -0.32 -4 -1 C-8.95 -1 -13.9 -1 -19 -1 C-18 -3 -18 -3 -15.9375 -3.6875 C-10.04001785 -4.31489172 -4.79834097 -3.74870388 0 0 Z " fill="#4C75AD" transform="translate(98,205)"/>
<path d="M0 0 C1.134375 0.020625 2.26875 0.04125 3.4375 0.0625 C2.04084979 2.85580042 -0.18584094 3.58789945 -2.83984375 5.04296875 C-4.72063666 6.15609109 -6.14718294 7.3974211 -7.5625 9.0625 C-8.5525 8.7325 -9.5425 8.4025 -10.5625 8.0625 C-10.5625 7.4025 -10.5625 6.7425 -10.5625 6.0625 C-8.9125 5.7325 -7.2625 5.4025 -5.5625 5.0625 C-5.418125 4.423125 -5.27375 3.78375 -5.125 3.125 C-4.16977878 -0.37747781 -3.91378882 0.06866296 0 0 Z " fill="#1A4BB6" transform="translate(161.5625,71.9375)"/>
<path d="M0 0 C0.66 0 1.32 0 2 0 C2.33 2.31 2.66 4.62 3 7 C7.455 6.505 7.455 6.505 12 6 C12 6.99 12 7.98 12 9 C8.7 9 5.4 9 2 9 C0 2.25 0 2.25 0 0 Z " fill="#496AA2" transform="translate(107,220)"/>
<path d="M0 0 C2.31 0.33 4.62 0.66 7 1 C7 2.65 7 4.3 7 6 C7.66 6.33 8.32 6.66 9 7 C6.1875 7.3125 6.1875 7.3125 3 7 C1.11400657 4.61107499 0 3.08148442 0 0 Z " fill="#1A3D8C" transform="translate(242,221)"/>
<path d="M0 0 C2.31 0 4.62 0 7 0 C6.67 1.65 6.34 3.3 6 5 C5.01 5 4.02 5 3 5 C3 4.01 3 3.02 3 2 C2.01 2.495 2.01 2.495 1 3 C0.53476937 4.89533342 0.53476937 4.89533342 0.375 7.0625 C0.25125 8.361875 0.1275 9.66125 0 11 C-0.33 11 -0.66 11 -1 11 C-1.0270043 9.54176788 -1.04639787 8.08339325 -1.0625 6.625 C-1.07410156 5.81289062 -1.08570313 5.00078125 -1.09765625 4.1640625 C-1 2 -1 2 0 0 Z " fill="#244889" transform="translate(131,203)"/>
<path d="M0 0 C0.33 0 0.66 0 1 0 C1.33 2.97 1.66 5.94 2 9 C3.98 9 5.96 9 8 9 C8.33 8.01 8.66 7.02 9 6 C8.67 7.98 8.34 9.96 8 12 C1.125 11.125 1.125 11.125 0 10 C-0.07205511 8.31391034 -0.08386068 6.62499341 -0.0625 4.9375 C-0.05347656 4.01839844 -0.04445313 3.09929687 -0.03515625 2.15234375 C-0.02355469 1.44207031 -0.01195313 0.73179687 0 0 Z " fill="#4265A4" transform="translate(82,212)"/>
<path d="M0 0 C0.99 0.33 1.98 0.66 3 1 C3 1.66 3 2.32 3 3 C2.34 3 1.68 3 1 3 C0.67 4.98 0.34 6.96 0 9 C-0.66 8.34 -1.32 7.68 -2 7 C-3.32 7 -4.64 7 -6 7 C-6.66 7.66 -7.32 8.32 -8 9 C-8 7.68 -8 6.36 -8 5 C-5.29120665 3.64560332 -2.99066732 3.93498549 0 4 C0 2.68 0 1.36 0 0 Z " fill="#36599B" transform="translate(91,203)"/>
<path d="M0 0 C-4.17688767 3.37364004 -8.68367579 5.97762996 -14 7 C-14 7.66 -14 8.32 -14 9 C-14.66 8.67 -15.32 8.34 -16 8 C-15.67 7.34 -15.34 6.68 -15 6 C-14.34 6 -13.68 6 -13 6 C-13 5.34 -13 4.68 -13 4 C-11.35 3.67 -9.7 3.34 -8 3 C-8 2.34 -8 1.68 -8 1 C-5.07175348 0.02391783 -3.04386724 -0.08226668 0 0 Z " fill="#021D52" transform="translate(181,160)"/>
<path d="M0 0 C-0.6875 1.9375 -0.6875 1.9375 -2 4 C-2.825 4.144375 -3.65 4.28875 -4.5 4.4375 C-5.325 4.623125 -6.15 4.80875 -7 5 C-8.37466625 7.47636012 -8.37466625 7.47636012 -9 10 C-9.66 10 -10.32 10 -11 10 C-9.48023588 4.68082559 -5.89175064 0 0 0 Z " fill="#BACEE8" transform="translate(93,74)"/>
<path d="M0 0 C1.32 0.33 2.64 0.66 4 1 C3.01 1.495 3.01 1.495 2 2 C2 3.65 2 5.3 2 7 C-0.97 7 -3.94 7 -7 7 C-7 6.34 -7 5.68 -7 5 C-4.69 5 -2.38 5 0 5 C0 3.35 0 1.7 0 0 Z " fill="#425D96" transform="translate(207,222)"/>
<path d="M0 0 C1.98 0 3.96 0 6 0 C3.24709051 2.13209391 0.45583256 4.01356503 -2.5625 5.75 C-3.70912109 6.42289063 -3.70912109 6.42289063 -4.87890625 7.109375 C-7 8 -7 8 -10 7 C-8.68 6.67 -7.36 6.34 -6 6 C-6 5.34 -6 4.68 -6 4 C-5.01 4 -4.02 4 -3 4 C-3 3.34 -3 2.68 -3 2 C-2.01 2 -1.02 2 0 2 C0 1.34 0 0.68 0 0 Z " fill="#5D7AA9" transform="translate(197,168)"/>
<path d="M0 0 C0.33 0 0.66 0 1 0 C1.03738281 0.58007812 1.07476562 1.16015625 1.11328125 1.7578125 C1.53903667 6.81678864 2.37138991 10.54279158 5 15 C2 15 2 15 0.61328125 13.6875 C-0.59114583 12.125 -1.79557292 10.5625 -3 9 C-2.01 9 -1.02 9 0 9 C-0.185625 8.071875 -0.37125 7.14375 -0.5625 6.1875 C-1 3 -1 3 0 0 Z " fill="#1C47AA" transform="translate(151,151)"/>
<path d="M0 0 C2.31 0 4.62 0 7 0 C7 1.98 7 3.96 7 6 C5.1875 6.625 5.1875 6.625 3 7 C2.01 6.34 1.02 5.68 0 5 C1.32 5 2.64 5 4 5 C4 3.68 4 2.36 4 1 C2.68 0.67 1.36 0.34 0 0 Z " fill="#3D65A2" transform="translate(239,208)"/>
<path d="M0 0 C0.99 0.309375 1.98 0.61875 3 0.9375 C6.97731122 2.08433207 10.88767379 2.56712356 15 3 C13 5 13 5 10.25 5.3125 C6.53142022 4.95494425 4.18225068 3.92415157 1 2 C0.67 1.34 0.34 0.68 0 0 Z " fill="#5E81B1" transform="translate(166,176)"/>
<path d="M0 0 C0.99 0 1.98 0 3 0 C3.33 0.66 3.66 1.32 4 2 C7.02934491 2.65772428 7.02934491 2.65772428 10 3 C10 3.99 10 4.98 10 6 C11.32 6.33 12.64 6.66 14 7 C9.24635987 6.53395685 5.86682984 5.87250217 2 3 C1.34 2.01 0.68 1.02 0 0 Z " fill="#C0CEE5" transform="translate(94,174)"/>
<path d="M0 0 C1.98 0 3.96 0 6 0 C4.41727399 3.16545202 1.60316869 3.71120622 -1.5625 5.125 C-2.76003906 5.66382813 -3.95757812 6.20265625 -5.19140625 6.7578125 C-6.11824219 7.16773438 -7.04507813 7.57765625 -8 8 C-8 7.01 -8 6.02 -8 5 C-5.36 4.34 -2.72 3.68 0 3 C0 2.01 0 1.02 0 0 Z " fill="#578BC8" transform="translate(156,171)"/>
<path d="M0 0 C0.99 0 1.98 0 3 0 C3 1.32 3 2.64 3 4 C4.65 3.67 6.3 3.34 8 3 C8 3.66 8 4.32 8 5 C5.29120665 6.35439668 2.99066732 6.06501451 0 6 C0 4.02 0 2.04 0 0 Z " fill="#315699" transform="translate(149,218)"/>
<path d="M0 0 C0.61875 0.7734375 0.61875 0.7734375 1.25 1.5625 C0.734375 1.665625 0.21875 1.76875 -0.3125 1.875 C-3.61026435 2.80513866 -6.61633332 4.17645512 -9.75 5.5625 C-10.08 4.9025 -10.41 4.2425 -10.75 3.5625 C-10.110625 3.459375 -9.47125 3.35625 -8.8125 3.25 C-8.131875 3.023125 -7.45125 2.79625 -6.75 2.5625 C-6.42 1.5725 -6.09 0.5825 -5.75 -0.4375 C-3.11357013 -1.66783394 -2.29825603 -1.88785317 0 0 Z " fill="#A3C8E7" transform="translate(126.75,171.4375)"/>
<path d="M0 0 C0 0.66 0 1.32 0 2 C-0.99 2.33 -1.98 2.66 -3 3 C-3.33 3.66 -3.66 4.32 -4 5 C-5.84765625 5.6328125 -5.84765625 5.6328125 -8.0625 6.125 C-8.79597656 6.29257813 -9.52945313 6.46015625 -10.28515625 6.6328125 C-10.85105469 6.75398438 -11.41695312 6.87515625 -12 7 C-12 6.34 -12 5.68 -12 5 C-11.34 5 -10.68 5 -10 5 C-10.33 4.01 -10.66 3.02 -11 2 C-9.6078125 2.061875 -9.6078125 2.061875 -8.1875 2.125 C-4.72190539 1.98909433 -3.24974144 0 0 0 Z " fill="#446BB7" transform="translate(185,62)"/>
<path d="M0 0 C0.99 0 1.98 0 3 0 C2.814375 1.093125 2.62875 2.18625 2.4375 3.3125 C1.7421932 6.93624133 1.7421932 6.93624133 3 10 C2.01 10.33 1.02 10.66 0 11 C-1.125 3.375 -1.125 3.375 0 0 Z " fill="#0B3A98" transform="translate(29,205)"/>
<path d="M0 0 C0.99 0 1.98 0 3 0 C3 2.64 3 5.28 3 8 C2.01 8 1.02 8 0 8 C0 5.36 0 2.72 0 0 Z " fill="#0A3C96" transform="translate(108,204)"/>
<path d="M0 0 C-0.66 1.65 -1.32 3.3 -2 5 C-4.97 4.505 -4.97 4.505 -8 4 C-4.5 0 -4.5 0 0 0 Z " fill="#3467B7" transform="translate(149,64)"/>
<path d="M0 0 C1.32 0 2.64 0 4 0 C4 0.66 4 1.32 4 2 C8.455 2.99 8.455 2.99 13 4 C13 4.33 13 4.66 13 5 C7.73946963 5.31563182 4.55426184 4.66590937 0 2 C0 1.34 0 0.68 0 0 Z " fill="#718EC1" transform="translate(132,176)"/>
<path d="M0 0 C0.66 0 1.32 0 2 0 C2.96891192 5.37305699 2.96891192 5.37305699 3 8 C1.5625 10 1.5625 10 0 11 C-0.66 10.34 -1.32 9.68 -2 9 C-1.34 9 -0.68 9 0 9 C0 6.03 0 3.06 0 0 Z " fill="#4B6BAA" transform="translate(273,212)"/>
<path d="M0 0 C-4.95 2.475 -4.95 2.475 -10 5 C-10 4.34 -10 3.68 -10 3 C-10.66 2.67 -11.32 2.34 -12 2 C-10.35 2 -8.7 2 -7 2 C-7 1.34 -7 0.68 -7 0 C-2.25 -1.125 -2.25 -1.125 0 0 Z " fill="#5077AB" transform="translate(214,163)"/>
<path d="M0 0 C0.99 0 1.98 0 3 0 C2.67 1.98 2.34 3.96 2 6 C0.68 6.33 -0.64 6.66 -2 7 C-1.42415568 4.61435923 -0.77772405 2.33317216 0 0 Z " fill="#0C3996" transform="translate(160,219)"/>
<path d="M0 0 C0.99 0.99 1.98 1.98 3 3 C2.67 3.66 2.34 4.32 2 5 C-0.97 5 -3.94 5 -7 5 C-7.33 3.68 -7.66 2.36 -8 1 C-7.34 1.66 -6.68 2.32 -6 3 C-4.01178687 3.39764263 -2.01055661 3.73775349 0 4 C0 2.68 0 1.36 0 0 Z " fill="#637EAC" transform="translate(251,224)"/>
<path d="M0 0 C1.98 0.495 1.98 0.495 4 1 C4 2.65 4 4.3 4 6 C2.35 6 0.7 6 -1 6 C-0.67 4.02 -0.34 2.04 0 0 Z " fill="#4F7AB3" transform="translate(211,212)"/>
<path d="M0 0 C0.66 0.33 1.32 0.66 2 1 C2 2.65 2 4.3 2 6 C1.01 5.67 0.02 5.34 -1 5 C-1.33 6.98 -1.66 8.96 -2 11 C-2.95465783 8.83032311 -3.14401212 7.43671207 -2.3984375 5.17578125 C-1.64129615 3.4315257 -0.82390802 1.71372869 0 0 Z " fill="#274993" transform="translate(212,207)"/>
<path d="M0 0 C1.65 0 3.3 0 5 0 C5 0.66 5 1.32 5 2 C5.66 2 6.32 2 7 2 C7 3.65 7 5.3 7 7 C6.01 6.67 5.02 6.34 4 6 C3.65657551 4.66923011 3.32380126 3.33568021 3 2 C2.01 1.34 1.02 0.68 0 0 Z " fill="#224989" transform="translate(119,203)"/>
<path d="M0 0 C1.98 0.66 3.96 1.32 6 2 C6 2.99 6 3.98 6 5 C4.02 5.99 4.02 5.99 2 7 C2.33 5.35 2.66 3.7 3 2 C2.01 2 1.02 2 0 2 C0 1.34 0 0.68 0 0 Z " fill="#163F9C" transform="translate(271,205)"/>
<path d="M0 0 C3.37462715 0.54723683 5.08235 1.0549 8 3 C8 3.66 8 4.32 8 5 C7.01 5.33 6.02 5.66 5 6 C5 5.34 5 4.68 5 4 C4.01 3.67 3.02 3.34 2 3 C2 2.34 2 1.68 2 1 C1.34 0.67 0.68 0.34 0 0 Z " fill="#3A5C9A" transform="translate(186,202)"/>
<path d="M0 0 C-0.33 0.99 -0.66 1.98 -1 3 C-4.375 3.125 -4.375 3.125 -8 3 C-8.66 2.34 -9.32 1.68 -10 1 C-6.56484998 0.37542727 -3.50935186 0 0 0 Z " fill="#2D56BE" transform="translate(148,177)"/>
<path d="M0 0 C1.65 0 3.3 0 5 0 C5.33 2.31 5.66 4.62 6 7 C1.125 2.25 1.125 2.25 0 0 Z " fill="#3E6DBB" transform="translate(126,170)"/>
<path d="M0 0 C-1.125 1.5 -1.125 1.5 -3 3 C-6.1875 3.1875 -6.1875 3.1875 -9 3 C-7.01532024 -0.96935951 -3.9567243 -1.41311582 0 0 Z " fill="#174FD2" transform="translate(170,62)"/>
<path d="M0 0 C0.99 0.33 1.98 0.66 3 1 C3 3.97 3 6.94 3 10 C2.01 10.33 1.02 10.66 0 11 C-0.66 10.34 -1.32 9.68 -2 9 C-1.01 9 -0.02 9 1 9 C1.33 6.69 1.66 4.38 2 2 C1.34 2 0.68 2 0 2 C0 1.34 0 0.68 0 0 Z " fill="#264587" transform="translate(161,216)"/>
<path d="M0 0 C-1.97420135 2.52259061 -2.96745642 2.9929808 -6.1875 3.6875 C-7.5796875 3.8421875 -7.5796875 3.8421875 -9 4 C-8 1 -8 1 -5.625 -0.25 C-3 -1 -3 -1 0 0 Z " fill="#2C4E91" transform="translate(219,159)"/>
<path d="M0 0 C0.66 0.66 1.32 1.32 2 2 C1.625 4.625 1.625 4.625 1 7 C0.34 7 -0.32 7 -1 7 C-1.33 8.32 -1.66 9.64 -2 11 C-1.125 3.375 -1.125 3.375 0 0 Z " fill="#5E80B6" transform="translate(116,208)"/>
<path d="M0 0 C1.98 0 3.96 0 6 0 C5.0409375 0.495 5.0409375 0.495 4.0625 1 C0.9447236 4.02329832 1.27956936 6.73656724 1 11 C0.67 11 0.34 11 0 11 C0 7.37 0 3.74 0 0 Z " fill="#5178B5" transform="translate(179,208)"/>
<path d="M0 0 C2.64 1.98 5.28 3.96 8 6 C7.67 6.66 7.34 7.32 7 8 C5.1875 7.8125 5.1875 7.8125 3 7 C0 2.82142857 0 2.82142857 0 0 Z " fill="#4D70AB" transform="translate(206,60)"/>
<path d="M0 0 C0.625 1.875 0.625 1.875 1 4 C0.34 4.66 -0.32 5.32 -1 6 C-3.125 5.625 -3.125 5.625 -5 5 C-4.360625 4.731875 -3.72125 4.46375 -3.0625 4.1875 C-0.66868314 3.11332248 -0.66868314 3.11332248 0 0 Z " fill="#2C4C8E" transform="translate(193,221)"/>
<path d="M0 0 C2 1 2 1 2 1 Z " fill="#FFFFFF" transform="translate(246,39)"/>
<path d="M0 0 C2 1 2 1 2 1 Z " fill="#FFFFFF" transform="translate(76,8)"/>
<path d="" fill="#FFFFFF" transform="translate(0,0)"/>
<path d="" fill="#FFFFFF" transform="translate(0,0)"/>
<path d="" fill="#FFFFFF" transform="translate(0,0)"/>
<path d="" fill="#FFFFFF" transform="translate(0,0)"/>
<path d="" fill="#FFFFFF" transform="translate(0,0)"/>
<path d="" fill="#FFFFFF" transform="translate(0,0)"/>
<path d="" fill="#FFFFFF" transform="translate(0,0)"/>
<path d="" fill="#FFFFFF" transform="translate(0,0)"/>
<path d="" fill="#FFFFFF" transform="translate(0,0)"/>
<path d="" fill="#FFFFFF" transform="translate(0,0)"/>
<path d="" fill="#FFFFFF" transform="translate(0,0)"/>
<path d="" fill="#FFFFFF" transform="translate(0,0)"/>
<path d="" fill="#FFFFFF" transform="translate(0,0)"/>
<path d="" fill="#FFFFFF" transform="translate(0,0)"/>
<path d="" fill="#FFFFFF" transform="translate(0,0)"/>
<path d="" fill="#FFFFFF" transform="translate(0,0)"/>
<path d="" fill="#FFFFFF" transform="translate(0,0)"/>
<path d="" fill="#FFFFFF" transform="translate(0,0)"/>
<path d="" fill="#FFFFFF" transform="translate(0,0)"/>
<path d="" fill="#FFFFFF" transform="translate(0,0)"/>
<path d="" fill="#FFFFFF" transform="translate(0,0)"/>
<path d="" fill="#FFFFFF" transform="translate(0,0)"/>
<path d="" fill="#FFFFFF" transform="translate(0,0)"/>
<path d="" fill="#FFFFFF" transform="translate(0,0)"/>
<path d="" fill="#FFFFFF" transform="translate(0,0)"/>
<path d="" fill="#FFFFFF" transform="translate(0,0)"/>
<path d="" fill="#FFFFFF" transform="translate(0,0)"/>
<path d="" fill="#FFFFFF" transform="translate(0,0)"/>
<path d="" fill="#FFFFFF" transform="translate(0,0)"/>
<path d="" fill="#FFFFFF" transform="translate(0,0)"/>
<path d="" fill="#FFFFFF" transform="translate(0,0)"/>
<path d="" fill="#FFFFFF" transform="translate(0,0)"/>
<path d="" fill="#FFFFFF" transform="translate(0,0)"/>
<path d="" fill="#FFFFFF" transform="translate(0,0)"/>
<path d="" fill="#FFFFFF" transform="translate(0,0)"/>
</svg>
